<?xml version="1.0" encoding="UTF-8"?>
<svg id="Layer_2" data-name="Layer 2" xmlns="http://www.w3.org/2000/svg" viewBox="0 0 289.797 208.322">
  <defs>
    <style>
      .cls-1 {
        stroke-width: 0px;
      }
    </style>
  </defs>
  <g id="Layer_1-2" data-name="Layer 1">
    <g>
      <path class="cls-1" d="m73.556,163.087c-2.686-5.464-4.985-10.216-7.349-14.935-6.487-12.948-13.071-25.847-19.489-38.829-11.118-22.491-2.783-47.762,19.774-58.841,7.982-3.92,16.297-7.922,24.909-9.655,21.627-4.35,43.877,11.94,48.128,33.737,1.45,7.433,1.034,14.619-1.261,21.655-6.03,18.487-12.221,36.923-18.509,55.324-3.305,9.674-6.128,12.848-20.22,24.362,3.965,8.057,7.971,16.196,12.138,24.663-5.258,2.635-10.127,5.075-15.406,7.72-4.175-8.294-8.36-16.192-12.119-24.289-1.433-3.087-3.247-3.896-6.482-3.885-7.638.026-15.434.449-22.885-.87-14.836-2.627-25.756-11.446-30.879-25.538-8.059-22.168-15.317-44.644-22.287-67.184-2.859-9.245-1.872-18.816,2.477-27.707,5.923-12.108,11.602-24.357,18.057-36.178C30.231,7.846,43.133.371,60.036.056c6.15-.115,12.304-.018,18.908-.018v17.078c-5.614,0-11.061.013-16.509-.003-11.919-.034-20.77,4.912-26.113,15.81-5.276,10.761-10.667,21.467-16.052,32.174-3.159,6.279-3.626,12.786-1.455,19.384,6.704,20.379,13.404,40.76,20.355,61.056,3.758,10.972,13.203,17.413,24.765,17.546,2.938.034,5.877.005,9.622.005Zm17.818-3.308c6.254-3.123,9.951-7.835,11.929-13.606,6.358-18.557,12.657-37.142,18.474-55.873,2.995-9.643.583-18.533-6.829-25.615-7.205-6.884-15.904-9.341-25.293-5.858-6.961,2.583-13.82,5.907-20.014,9.98-9.488,6.24-13.442,19.757-8.647,29.795,9.739,20.386,20.065,40.492,30.381,61.177Z"/>
      <path class="cls-1" d="m249.073,175.936c3.932,7.953,7.897,15.974,12.142,24.561-5.077,2.594-9.888,5.051-15.318,7.825-3.98-7.898-8.068-15.458-11.606-23.268-1.703-3.761-3.898-4.99-7.961-4.96-7.622.057-15.42.318-22.84-1.1-15.263-2.917-25.64-12.589-30.792-27.016-7.434-20.814-14.173-41.88-21.025-62.898-3.397-10.419-2.59-20.789,2.121-30.64,5.745-12.013,11.474-24.062,17.9-35.714C179.915,7.818,192.924.236,210.057.047c5.956-.066,11.913-.01,18.245-.01v17.054c-4.82,0-9.581.133-14.333-.025-13.8-.458-23.508,5.262-29.273,18.085-4.365,9.71-9.472,19.087-14.289,28.592-3.56,7.026-4.266,14.199-1.728,21.749,6.724,19.998,13.281,40.052,20.014,60.046,3.564,10.585,12.977,17.284,24.264,17.523,2.989.063,5.981.01,9.892.01-.971-2.222-1.646-3.966-2.476-5.633-7.793-15.644-15.612-31.276-23.425-46.91-11.995-23.999-3.996-48.564,20.061-60.569,7.092-3.539,14.419-7.411,22.07-8.884,31.924-6.144,58.29,23.623,48.731,54.735-5.609,18.258-11.834,36.331-17.998,54.413-3.794,11.13-6.659,14.397-20.741,25.714Zm-8.193-16.108c5.757-3.011,9.692-7.299,11.624-12.955,6.546-19.157,13.171-38.3,19.055-57.664,4.267-14.042-5.589-28.695-20.076-31.274-12.265-2.183-33.94,8.361-39.678,19.381-.913,1.754-2.037,3.696-2.056,5.561-.053,5.196-1.078,11.092.948,15.479,9.537,20.649,19.969,40.885,30.182,61.47Z"/>
    </g>
  </g>
</svg>